<mxfile host="65bd71144e">
    <diagram id="Pk8rSRjdbhA-xy9wLnw3" name="PÃ¡gina-1">
        <mxGraphModel dx="775" dy="347" grid="0" gridSize="10" guides="1" tooltips="1" connect="1" arrows="1" fold="1" page="1" pageScale="1" pageWidth="827" pageHeight="1169" math="0" shadow="0">
            <root>
                <mxCell id="0"/>
                <mxCell id="1" parent="0"/>
                <mxCell id="2" value="Personagem" style="rounded=1;whiteSpace=wrap;html=1;strokeColor=#00FF80;strokeWidth=5;" parent="1" vertex="1">
                    <mxGeometry x="217" y="200" width="120" height="60" as="geometry"/>
                </mxCell>
                <mxCell id="4" value="N:1" style="edgeStyle=orthogonalEdgeStyle;html=1;exitX=0.5;exitY=1;exitDx=0;exitDy=0;entryX=1;entryY=0.5;entryDx=0;entryDy=0;" parent="1" source="3" target="2" edge="1">
                    <mxGeometry x="0.0917" relative="1" as="geometry">
                        <mxPoint as="offset"/>
                    </mxGeometry>
                </mxCell>
                <mxCell id="3" value="User" style="rounded=1;whiteSpace=wrap;html=1;strokeColor=#3333FF;strokeWidth=4;" parent="1" vertex="1">
                    <mxGeometry x="405" y="80" width="120" height="60" as="geometry"/>
                </mxCell>
                <mxCell id="5" value="UseCase" style="rounded=1;whiteSpace=wrap;html=1;strokeColor=#FFFF00;strokeWidth=5;" vertex="1" parent="1">
                    <mxGeometry x="499" y="535" width="176" height="71" as="geometry"/>
                </mxCell>
                <mxCell id="6" value="MongoDbRepository" style="rounded=1;whiteSpace=wrap;html=1;strokeWidth=3;strokeColor=#66FFFF;" vertex="1" parent="1">
                    <mxGeometry x="247" y="535" width="137" height="67" as="geometry"/>
                </mxCell>
                <mxCell id="7" value="" style="rounded=1;whiteSpace=wrap;html=1;strokeColor=#9999FF;strokeWidth=5;" vertex="1" parent="1">
                    <mxGeometry x="378" y="687" width="460" height="254" as="geometry"/>
                </mxCell>
                <mxCell id="8" value="import UseCase" style="rounded=1;whiteSpace=wrap;html=1;strokeColor=#FFFF00;strokeWidth=5;" vertex="1" parent="1">
                    <mxGeometry x="414" y="705" width="134" height="27" as="geometry"/>
                </mxCell>
                <mxCell id="9" value="import MongoDbRepository" style="rounded=1;whiteSpace=wrap;html=1;strokeWidth=3;strokeColor=#66FFFF;" vertex="1" parent="1">
                    <mxGeometry x="414" y="738" width="181" height="24" as="geometry"/>
                </mxCell>
                <mxCell id="10" value="const create = new UseCase(repository)" style="rounded=1;whiteSpace=wrap;html=1;strokeColor=#FFFF00;strokeWidth=5;" vertex="1" parent="1">
                    <mxGeometry x="414" y="823" width="250" height="27" as="geometry"/>
                </mxCell>
                <mxCell id="11" value="const repository = new PostgresRepository" style="rounded=1;whiteSpace=wrap;html=1;strokeWidth=3;strokeColor=#66FFFF;" vertex="1" parent="1">
                    <mxGeometry x="414" y="792" width="285" height="24" as="geometry"/>
                </mxCell>
                <mxCell id="12" value="create.execute(userData)" style="rounded=1;whiteSpace=wrap;html=1;strokeColor=#FFFF00;strokeWidth=5;" vertex="1" parent="1">
                    <mxGeometry x="414" y="857" width="157" height="27" as="geometry"/>
                </mxCell>
            </root>
        </mxGraphModel>
    </diagram>
</mxfile>